<?xml version="1.0" encoding="utf-8"?>
<!-- Svg Vector Icons : http://www.onlinewebfonts.com/icon -->
<!DOCTYPE svg PUBLIC "-//W3C//DTD SVG 1.1//EN" "http://www.w3.org/Graphics/SVG/1.1/DTD/svg11.dtd">
<svg version="1.1" xmlns="http://www.w3.org/2000/svg" xmlns:xlink="http://www.w3.org/1999/xlink" x="0px" y="0px" viewBox="0 0 1000 1000" enable-background="new 0 0 1000 1000" xml:space="preserve">
<metadata> Svg Vector Icons : http://www.onlinewebfonts.com/icon </metadata>
<g><path d="M185.1,765.9c-13.6,0-24.6-11-24.6-24.6V151.4c0-13.6,11-24.6,24.6-24.6h511.4c13.6,0,24.6,11,24.6,24.6v203.3v41.5l104.1,103.6V390.9V108.6c0-54.4-44.2-98.6-98.6-98.6H155c-54.4,0-98.6,44.2-98.6,98.6v782.8c0,54.4,44.2,98.6,98.6,98.6h458.6c39.4,0,73.4-23.2,89.2-56.6L546.5,765.9H185.1z M457.8,933.2c-32.6,0-59-26.4-59-59s26.4-59,59-59c32.6,0,59,26.4,59,59C516.7,906.7,490.3,933.2,457.8,933.2z"/><path d="M928.2,760.8l-25.4-25.3l-141-140.3L657.8,491.5L638,471.8c1.6-4.9,2.9-9.9,4.1-15c3.1-13.5,4.7-27.6,4.7-42c0-12.6-1.3-25-3.6-36.9c-17.2-86.3-93.3-151.4-184.7-151.4c-9.3,0-18.4,0.7-27.4,2c0,0,0,0,0,0v0l-3.7,52.1l85.6,87.8L405.8,474.6l-90.7-90.7l-43.7,8.8l0,0c0,0,0,0,0,0.1c-0.8,7.2-1.3,14.6-1.3,22c0,84.7,55.9,156.3,132.8,180c17.6,5.4,36.2,8.3,55.6,8.3c18.2,0,35.8-2.6,52.5-7.4c0.1,0,0.2-0.1,0.3-0.1l73.6,73.5l167.6,167.5l23,23l28.9,28.8c14,8.8,30.5,13.8,48.2,13.8c50.2,0,91-40.7,91-91C943.6,792.6,937.9,775.2,928.2,760.8z"/></g>
</svg>